<svg width="25" height="24" viewBox="0 0 25 24" fill="none" xmlns="http://www.w3.org/2000/svg">
<path d="M22.0379 11.662L12.8479 20.852C11.7221 21.9778 10.1951 22.6103 8.60295 22.6103C7.01076 22.6103 5.48379 21.9778 4.35795 20.852C3.2321 19.7261 2.59961 18.1992 2.59961 16.607C2.59961 15.0148 3.2321 13.4878 4.35795 12.362L13.5479 3.17198C14.2985 2.42142 15.3165 1.99976 16.3779 1.99976C17.4394 1.99976 18.4574 2.42142 19.2079 3.17198C19.9585 3.92254 20.3802 4.94052 20.3802 6.00198C20.3802 7.06344 19.9585 8.08142 19.2079 8.83198L10.0079 18.022C9.82213 18.2078 9.60153 18.3552 9.35874 18.4558C9.11595 18.5563 8.85574 18.6081 8.59295 18.6081C8.33016 18.6081 8.06994 18.5563 7.82715 18.4558C7.58437 18.3552 7.36377 18.2078 7.17795 18.022C6.99213 17.8362 6.84473 17.6156 6.74416 17.3728C6.64359 17.13 6.59183 16.8698 6.59183 16.607C6.59183 16.3442 6.64359 16.084 6.74416 15.8412C6.84473 15.5984 6.99213 15.3778 7.17795 15.192L15.6679 6.71198" stroke="#00332C" stroke-linecap="round" stroke-linejoin="round"/>
</svg>
