<svg width="28" height="28" viewBox="0 0 28 28" fill="none" xmlns="http://www.w3.org/2000/svg">
<path d="M24.7251 22.25H3.27507C3.05627 22.25 2.84643 22.1631 2.69171 22.0083C2.53699 21.8536 2.45007 21.6438 2.45007 21.425V7.39998C2.45007 7.18117 2.53699 6.97133 2.69171 6.81661C2.84643 6.6619 3.05627 6.57498 3.27507 6.57498H8.60457L10.0153 4.47123C10.0901 4.35774 10.1917 4.26447 10.3111 4.1997C10.4306 4.13494 10.5642 4.10068 10.7001 4.09998H17.3001C17.436 4.10068 17.5696 4.13494 17.689 4.1997C17.8085 4.26447 17.9101 4.35774 17.9848 4.47123L19.3956 6.57498H24.7251C24.9439 6.57498 25.1537 6.6619 25.3084 6.81661C25.4632 6.97133 25.5501 7.18117 25.5501 7.39998V21.425C25.5501 21.6438 25.4632 21.8536 25.3084 22.0083C25.1537 22.1631 24.9439 22.25 24.7251 22.25ZM4.10007 20.6H23.9001V8.22498H18.9501C18.8142 8.22427 18.6806 8.19002 18.5611 8.12525C18.4417 8.06048 18.3401 7.96721 18.2653 7.85373L16.8546 5.74998H11.1456L9.73482 7.85373C9.66009 7.96721 9.55848 8.06048 9.43902 8.12525C9.31956 8.19002 9.18596 8.22427 9.05007 8.22498H4.10007V20.6Z" fill="#00332C" fill-opacity="0.95"/>
<path d="M14.0001 18.95C13.021 18.95 12.064 18.6597 11.25 18.1158C10.436 17.5719 9.8015 16.7988 9.42685 15.8943C9.05219 14.9898 8.95417 13.9945 9.14516 13.0343C9.33616 12.0741 9.8076 11.1921 10.4999 10.4998C11.1921 9.80754 12.0741 9.3361 13.0344 9.1451C13.9946 8.95411 14.9898 9.05213 15.8943 9.42679C16.7988 9.80144 17.5719 10.4359 18.1158 11.2499C18.6597 12.0639 18.9501 13.021 18.9501 14C18.9501 15.3128 18.4285 16.5719 17.5002 17.5002C16.5719 18.4285 15.3129 18.95 14.0001 18.95ZM14.0001 10.7C13.3474 10.7 12.7094 10.8935 12.1667 11.2561C11.624 11.6187 11.201 12.1341 10.9512 12.7371C10.7015 13.3401 10.6361 14.0037 10.7635 14.6438C10.8908 15.2839 11.2051 15.8719 11.6666 16.3334C12.1281 16.795 12.7161 17.1093 13.3563 17.2366C13.9964 17.3639 14.6599 17.2986 15.2629 17.0488C15.8659 16.799 16.3813 16.3761 16.7439 15.8334C17.1065 15.2907 17.3001 14.6527 17.3001 14C17.3001 13.1248 16.9524 12.2854 16.3335 11.6665C15.7146 11.0477 14.8753 10.7 14.0001 10.7Z" fill="#00332C"/>
</svg>
