<svg width="22" height="22" viewBox="0 0 22 22" fill="none" xmlns="http://www.w3.org/2000/svg">
<path fill-rule="evenodd" clip-rule="evenodd" d="M4.76648 2.26999C5.91263 1.49048 7.20178 0.945621 8.55956 0.666837C9.91734 0.388053 11.3169 0.380864 12.6775 0.645685C14.038 0.910506 15.3327 1.4421 16.4868 2.20979C17.6409 2.97748 18.6316 3.96609 19.4017 5.11858C20.1718 6.27106 20.7061 7.56462 20.9738 8.92464C21.2414 10.2847 21.2372 11.6842 20.9612 13.0426C20.6853 14.4009 20.1431 15.6912 19.366 16.839C18.5889 17.9868 17.5922 18.9693 16.4335 19.73C14.1181 21.2773 11.283 21.8415 8.55162 21.2985C5.8203 20.7554 3.41657 19.1496 1.86923 16.8342C0.32189 14.5189 -0.242309 11.6837 0.300749 8.95239C0.843807 6.22106 2.44964 3.81733 4.76498 2.26999H4.76648ZM5.60048 18.4835C6.58307 19.1474 7.68719 19.6106 8.84937 19.8464C10.0115 20.0823 11.2089 20.0861 12.3725 19.8577C13.5362 19.6293 14.6433 19.1732 15.6301 18.5156C16.6169 17.858 17.4641 17.0118 18.1228 16.0258C18.7816 15.0397 19.239 13.9332 19.4687 12.7698C19.6985 11.6064 19.696 10.409 19.4615 9.24659C19.227 8.08414 18.7651 6.97949 18.1023 5.99612C17.4396 5.01276 16.589 4.17007 15.5995 3.51649C13.6146 2.20546 11.1914 1.73354 8.85961 2.20391C6.5278 2.67428 4.47705 4.04867 3.15562 6.02664C1.83419 8.00462 1.34958 10.4253 1.80771 12.7595C2.26584 15.0938 3.62946 17.1517 5.60048 18.4835ZM8.34998 9.49999C8.34998 9.89782 8.19194 10.2793 7.91064 10.5607C7.62933 10.842 7.2478 11 6.84998 11C6.45215 11 6.07062 10.842 5.78932 10.5607C5.50801 10.2793 5.34998 9.89782 5.34998 9.49999C5.34998 9.10217 5.50801 8.72064 5.78932 8.43933C6.07062 8.15803 6.45215 7.99999 6.84998 7.99999C7.2478 7.99999 7.62933 8.15803 7.91064 8.43933C8.19194 8.72064 8.34998 9.10217 8.34998 9.49999ZM15.85 9.49999C15.85 9.89782 15.6919 10.2793 15.4106 10.5607C15.1293 10.842 14.7478 11 14.35 11C13.9522 11 13.5706 10.842 13.2893 10.5607C13.008 10.2793 12.85 9.89782 12.85 9.49999C12.85 9.10217 13.008 8.72064 13.2893 8.43933C13.5706 8.15803 13.9522 7.99999 14.35 7.99999C14.7478 7.99999 15.1293 8.15803 15.4106 8.43933C15.6919 8.72064 15.85 9.10217 15.85 9.49999ZM10.6 15.5C9.78489 15.502 8.98456 15.2826 8.28446 14.8651C7.58436 14.4477 7.01079 13.848 6.62498 13.13L5.31998 13.85C5.8452 14.8219 6.62858 15.63 7.58377 16.1851C8.53896 16.7402 9.62887 17.0209 10.7334 16.996C11.8379 16.9712 12.9141 16.6419 13.8434 16.0445C14.7727 15.447 15.5189 14.6046 16 13.61L14.65 12.965C14.281 13.7252 13.7055 14.3661 12.9892 14.8144C12.273 15.2627 11.445 15.5003 10.6 15.5Z" fill="#00332C"/>
</svg>
