<svg width="27" height="25" viewBox="0 0 27 25" fill="none" xmlns="http://www.w3.org/2000/svg">
<path d="M25.8052 12.3018L14.14 0.645118C14.0561 0.560962 13.9563 0.494196 13.8465 0.448641C13.7366 0.403087 13.6189 0.379639 13.5 0.379639C13.3811 0.379639 13.2634 0.403087 13.1536 0.448641C13.0437 0.494196 12.944 0.560962 12.86 0.645118L1.19484 12.3018C0.854993 12.6416 0.662415 13.1032 0.662415 13.5847C0.662415 14.5844 1.47521 15.3972 2.47491 15.3972H3.70402V23.7148C3.70402 24.2161 4.109 24.6211 4.61027 24.6211H11.6875V18.2773H14.8594V24.6211H22.3898C22.891 24.6211 23.296 24.2161 23.296 23.7148V15.3972H24.5251C25.0066 15.3972 25.4682 15.2074 25.808 14.8647C26.5132 14.1567 26.5132 13.0098 25.8052 12.3018Z" fill="#9B9B9B"/>
</svg>
