<svg width="22" height="21" viewBox="0 0 22 21" fill="none" xmlns="http://www.w3.org/2000/svg">
<path d="M22 10C22 15.3158 17.0748 19.625 11 19.625C9.91052 19.6265 8.82556 19.485 7.77287 19.2043C6.96987 19.6112 5.126 20.3923 2.024 20.901C1.749 20.945 1.54 20.659 1.64863 20.4032C2.13538 19.2537 2.57538 17.722 2.70738 16.325C1.023 14.6338 0 12.42 0 10C0 4.68425 4.92525 0.375 11 0.375C17.0748 0.375 22 4.68425 22 10ZM6.875 10C6.875 9.63533 6.73013 9.28559 6.47227 9.02773C6.21441 8.76987 5.86467 8.625 5.5 8.625C5.13533 8.625 4.78559 8.76987 4.52773 9.02773C4.26987 9.28559 4.125 9.63533 4.125 10C4.125 10.3647 4.26987 10.7144 4.52773 10.9723C4.78559 11.2301 5.13533 11.375 5.5 11.375C5.86467 11.375 6.21441 11.2301 6.47227 10.9723C6.73013 10.7144 6.875 10.3647 6.875 10ZM12.375 10C12.375 9.63533 12.2301 9.28559 11.9723 9.02773C11.7144 8.76987 11.3647 8.625 11 8.625C10.6353 8.625 10.2856 8.76987 10.0277 9.02773C9.76987 9.28559 9.625 9.63533 9.625 10C9.625 10.3647 9.76987 10.7144 10.0277 10.9723C10.2856 11.2301 10.6353 11.375 11 11.375C11.3647 11.375 11.7144 11.2301 11.9723 10.9723C12.2301 10.7144 12.375 10.3647 12.375 10ZM16.5 11.375C16.8647 11.375 17.2144 11.2301 17.4723 10.9723C17.7301 10.7144 17.875 10.3647 17.875 10C17.875 9.63533 17.7301 9.28559 17.4723 9.02773C17.2144 8.76987 16.8647 8.625 16.5 8.625C16.1353 8.625 15.7856 8.76987 15.5277 9.02773C15.2699 9.28559 15.125 9.63533 15.125 10C15.125 10.3647 15.2699 10.7144 15.5277 10.9723C15.7856 11.2301 16.1353 11.375 16.5 11.375Z" fill="#9B9B9B"/>
</svg>
