<svg width="22" height="23" viewBox="0 0 22 23" fill="none" xmlns="http://www.w3.org/2000/svg">
<path d="M13.445 9.01999C15.46 9.01999 16.7 6.07499 16.7 4.21499C16.7 2.66499 15.925 0.804994 14.375 0.804994C12.36 0.804994 11.12 3.74999 11.12 5.60999C11.12 7.15999 11.895 9.01999 13.445 9.01999ZM7.55501 9.01999C9.10501 9.01999 9.88001 7.15999 9.88001 5.60999C9.88001 3.59499 8.64001 0.649994 6.62501 0.649994C5.07501 0.649994 4.30001 2.50999 4.30001 4.05999C4.14501 6.07499 5.38501 9.01999 7.55501 9.01999ZM19.025 7.46999C17.01 7.46999 15.615 10.26 15.615 12.275C15.615 13.67 16.235 15.065 17.63 15.065C19.645 15.065 21.04 12.275 21.04 10.26C21.04 8.86499 20.265 7.46999 19.025 7.46999ZM5.54001 12.275C5.54001 10.26 3.99001 7.46999 2.13001 7.46999C0.735005 7.46999 0.115005 8.86499 0.115005 10.26C0.115005 12.275 1.66501 15.065 3.52501 15.065C4.92001 15.065 5.54001 13.67 5.54001 12.275ZM10.5 11.965C7.40001 11.965 3.21501 16.925 3.21501 20.335C3.21501 21.885 4.30001 22.35 5.54001 22.35C7.40001 22.35 8.79501 21.11 10.5 21.11C12.05 21.11 13.445 22.35 15.15 22.35C16.39 22.35 17.785 22.04 17.785 20.335C17.785 16.925 13.6 11.965 10.5 11.965Z" fill="#9B9B9B"/>
</svg>
