<svg width="24" height="25" viewBox="0 0 24 25" fill="none" xmlns="http://www.w3.org/2000/svg">
<path fill-rule="evenodd" clip-rule="evenodd" d="M12 23.375C17.7989 23.375 22.5 18.506 22.5 12.5C22.5 6.49398 17.7989 1.62501 12 1.62501C6.20106 1.62501 1.49998 6.49398 1.49998 12.5C1.49998 18.506 6.20106 23.375 12 23.375ZM12 24.5833C18.4435 24.5833 23.6666 19.1736 23.6666 12.5C23.6666 5.82638 18.4435 0.416672 12 0.416672C5.55648 0.416672 0.333313 5.82638 0.333313 12.5C0.333313 19.1736 5.55648 24.5833 12 24.5833Z" fill="#9B9B9B"/>
<path d="M5 19.5265C5 18.9024 5.45033 18.3749 6.05 18.306C10.5504 17.7901 13.47 17.8366 17.9605 18.3175C18.1847 18.3419 18.3973 18.4334 18.5721 18.5808C18.747 18.7283 18.8766 18.9252 18.9452 19.1477C19.0137 19.3702 19.0182 19.6085 18.9581 19.8336C18.898 20.0587 18.776 20.2608 18.6068 20.4152C13.3073 25.1996 10.2786 25.1337 5.37333 20.42C5.13417 20.1904 5 19.8642 5 19.5271V19.5265Z" fill="#9B9B9B"/>
<path fill-rule="evenodd" clip-rule="evenodd" d="M17.9004 18.9181C13.4455 18.4408 10.5679 18.3961 6.11355 18.9066C5.96692 18.9243 5.83175 18.9974 5.73391 19.1119C5.63608 19.2263 5.58245 19.3742 5.5833 19.5271C5.5833 19.6999 5.65271 19.8636 5.76996 19.9772C8.2013 22.3129 10.0435 23.3684 11.8442 23.375C13.6514 23.3817 15.5927 22.3346 18.2235 19.9603C18.3071 19.8832 18.3673 19.7827 18.3967 19.6709C18.4262 19.5591 18.4236 19.4408 18.3894 19.3305C18.3552 19.2202 18.2907 19.1225 18.2039 19.0494C18.1171 18.9763 18.0117 18.9309 17.9004 18.9187V18.9181ZM5.9858 17.7055C10.5335 17.1841 13.4956 17.2312 18.0211 17.7164C18.3585 17.7528 18.6782 17.8904 18.9413 18.1122C19.2043 18.334 19.3992 18.6304 19.502 18.9651C19.6049 19.2999 19.6114 19.6584 19.5205 19.9969C19.4297 20.3353 19.2455 20.639 18.9906 20.8707C16.3219 23.2801 14.0994 24.5924 11.8407 24.5833C9.57563 24.5749 7.45113 23.2403 4.97721 20.8629C4.80009 20.692 4.65888 20.4851 4.56243 20.2552C4.46598 20.0252 4.41634 19.7772 4.41663 19.5265C4.41578 19.076 4.57541 18.6411 4.86496 18.305C5.1545 17.9688 5.5536 17.7552 5.9858 17.7049V17.7055Z" fill="#9B9B9B"/>
<path d="M16.6666 10.0833C16.6666 11.3652 16.175 12.5946 15.2998 13.501C14.4246 14.4074 13.2377 14.9167 12 14.9167C10.7623 14.9167 9.57532 14.4074 8.70015 13.501C7.82498 12.5946 7.33331 11.3652 7.33331 10.0833C7.33331 8.80145 7.82498 7.57208 8.70015 6.66565C9.57532 5.75922 10.7623 5.25 12 5.25C13.2377 5.25 14.4246 5.75922 15.2998 6.66565C16.175 7.57208 16.6666 8.80145 16.6666 10.0833Z" fill="#9B9B9B"/>
<path fill-rule="evenodd" clip-rule="evenodd" d="M12 13.7083C12.9282 13.7083 13.8185 13.3264 14.4749 12.6466C15.1312 11.9668 15.5 11.0447 15.5 10.0833C15.5 9.12192 15.1312 8.19989 14.4749 7.52007C13.8185 6.84025 12.9282 6.45833 12 6.45833C11.0717 6.45833 10.1815 6.84025 9.52511 7.52007C8.86873 8.19989 8.49998 9.12192 8.49998 10.0833C8.49998 11.0447 8.86873 11.9668 9.52511 12.6466C10.1815 13.3264 11.0717 13.7083 12 13.7083ZM12 14.9167C13.2377 14.9167 14.4246 14.4074 15.2998 13.501C16.175 12.5946 16.6666 11.3652 16.6666 10.0833C16.6666 8.80145 16.175 7.57208 15.2998 6.66565C14.4246 5.75922 13.2377 5.25 12 5.25C10.7623 5.25 9.57532 5.75922 8.70015 6.66565C7.82498 7.57208 7.33331 8.80145 7.33331 10.0833C7.33331 11.3652 7.82498 12.5946 8.70015 13.501C9.57532 14.4074 10.7623 14.9167 12 14.9167Z" fill="#9B9B9B"/>
</svg>
