<svg width="30" height="30" viewBox="0 0 30 30" fill="none" xmlns="http://www.w3.org/2000/svg">
<path d="M16.764 20.49V26.316C16.764 26.4168 16.7243 26.5136 16.6536 26.5854C16.5829 26.6573 16.4868 26.6984 16.386 26.7H13.614C13.5132 26.6984 13.417 26.6573 13.3463 26.5854C13.2756 26.5136 13.2359 26.4168 13.236 26.316V20.49M15 3.29999C16.2109 3.29999 17.3723 3.78105 18.2286 4.63734C19.0849 5.49363 19.566 6.65501 19.566 7.86599V13.518C19.566 14.729 19.0849 15.8903 18.2286 16.7466C17.3723 17.6029 16.2109 18.084 15 18.084V18.084C13.789 18.084 12.6276 17.6029 11.7713 16.7466C10.915 15.8903 10.434 14.729 10.434 13.518V7.86599C10.434 6.65501 10.915 5.49363 11.7713 4.63734C12.6276 3.78105 13.789 3.29999 15 3.29999V3.29999Z" stroke="#00332C" stroke-linecap="round" stroke-linejoin="round"/>
<path d="M7.93799 14.874C8.26262 16.5081 9.14392 17.9791 10.4317 19.0362C11.7194 20.0933 13.3339 20.6711 15 20.6711C16.6661 20.6711 18.2806 20.0933 19.5683 19.0362C20.8561 17.9791 21.7374 16.5081 22.062 14.874" stroke="#00332C" stroke-linecap="round" stroke-linejoin="round"/>
</svg>
