<svg width="24" height="20" viewBox="0 0 24 20" fill="none" xmlns="http://www.w3.org/2000/svg">
<path fill-rule="evenodd" clip-rule="evenodd" d="M16.1449 12.4158L21.3007 16.8992C21.4819 17.0569 21.5837 17.2707 21.5836 17.4936C21.5835 17.7166 21.4816 17.9303 21.3002 18.0879C21.1189 18.2455 20.8729 18.334 20.6166 18.3339C20.3602 18.3338 20.1144 18.2452 19.9331 18.0875L14.7773 13.6042C13.236 14.6422 11.2979 15.1307 9.3571 14.9703C7.41633 14.8098 5.61874 14.0125 4.33002 12.7405C3.04131 11.4685 2.35826 9.81734 2.41985 8.12295C2.48143 6.42856 3.28302 4.81821 4.66153 3.61949C6.04005 2.42078 7.89195 1.72375 9.8405 1.6702C11.789 1.61665 13.6879 2.2106 15.1507 3.33123C16.6135 4.45185 17.5304 6.01497 17.7149 7.7026C17.8994 9.39022 17.3377 11.0756 16.1439 12.4158H16.1449ZM10.0834 13.3333C11.6084 13.3333 13.0709 12.8065 14.1493 11.8689C15.2276 10.9312 15.8334 9.65941 15.8334 8.33332C15.8334 7.00724 15.2276 5.73547 14.1493 4.79779C13.0709 3.86011 11.6084 3.33332 10.0834 3.33332C8.5584 3.33332 7.09587 3.86011 6.01753 4.79779C4.9392 5.73547 4.3334 7.00724 4.3334 8.33332C4.3334 9.65941 4.9392 10.9312 6.01753 11.8689C7.09587 12.8065 8.5584 13.3333 10.0834 13.3333Z" fill="#00473E"/>
</svg>
