<svg width="6" height="18" viewBox="0 0 6 18" fill="none" xmlns="http://www.w3.org/2000/svg">
<path d="M3.25106 7.02C2.9519 7.02 2.65567 7.07124 2.37929 7.17079C2.10291 7.27034 1.85178 7.41625 1.64024 7.60019C1.42871 7.78414 1.26091 8.00251 1.14643 8.24284C1.03195 8.48317 0.973023 8.74076 0.973023 9.0009C0.973023 9.26103 1.03195 9.51862 1.14643 9.75896C1.26091 9.99929 1.42871 10.2177 1.64024 10.4016C1.85178 10.5855 2.10291 10.7315 2.37929 10.831C2.65567 10.9306 2.9519 10.9818 3.25106 10.9818C3.85523 10.9817 4.4346 10.7729 4.86172 10.4013C5.28884 10.0297 5.52871 9.52582 5.52858 9.00045C5.52844 8.47508 5.2883 7.97128 4.86099 7.59987C4.43368 7.22847 3.8542 7.01988 3.25002 7.02H3.25106ZM3.25106 4.68C3.55008 4.67988 3.84614 4.62855 4.12235 4.52894C4.39856 4.42932 4.64949 4.28338 4.86084 4.09943C5.07218 3.91549 5.23979 3.69715 5.35409 3.45688C5.4684 3.21661 5.52716 2.95912 5.52702 2.6991C5.52689 2.43908 5.46786 2.18163 5.3533 1.94145C5.23874 1.70128 5.07091 1.48307 4.85937 1.29929C4.64784 1.11552 4.39675 0.969769 4.12044 0.870374C3.84413 0.770978 3.54801 0.719881 3.24899 0.72C2.64509 0.720238 2.06603 0.929074 1.63921 1.30056C1.21238 1.67206 0.972748 2.17577 0.973023 2.7009C0.973297 3.22603 1.21346 3.72955 1.64067 4.10071C2.06789 4.47186 2.64716 4.68024 3.25106 4.68V4.68ZM3.25106 13.32C2.64689 13.32 2.06746 13.5287 1.64024 13.9002C1.21303 14.2717 0.973023 14.7755 0.973023 15.3009C0.973023 15.8263 1.21303 16.3301 1.64024 16.7016C2.06746 17.0731 2.64689 17.2818 3.25106 17.2818C3.85523 17.2818 4.43466 17.0731 4.86187 16.7016C5.28909 16.3301 5.52909 15.8263 5.52909 15.3009C5.52909 14.7755 5.28909 14.2717 4.86187 13.9002C4.43466 13.5287 3.85523 13.32 3.25106 13.32V13.32Z" fill="#00473E"/>
</svg>
